<svg width="24" height="21" viewBox="0 0 24 21" fill="none" xmlns="http://www.w3.org/2000/svg">
<path d="M4.4423 20.6451C5.11695 20.6451 5.65473 20.1073 5.65473 19.4326C5.65473 18.758 5.10718 18.2202 4.4423 18.2202C3.76764 18.2202 3.22987 18.7677 3.22987 19.4326C3.22987 20.1171 3.77742 20.6451 4.4423 20.6451ZM1.37211 13.2042C2.04677 13.2042 2.58454 12.647 2.58454 11.982C2.58454 11.2976 2.02721 10.7696 1.37211 10.7696C0.697452 10.7696 0.149902 11.3171 0.149902 11.982C0.149902 12.6567 0.70723 13.2042 1.37211 13.2042ZM4.4423 5.76345C5.11695 5.76345 5.65473 5.2159 5.65473 4.55101C5.65473 3.86658 5.10718 3.33858 4.4423 3.33858C3.76764 3.33858 3.22987 3.87635 3.22987 4.55101C3.22987 5.22568 3.77742 5.76345 4.4423 5.76345ZM11.9418 2.63459C12.6164 2.63459 13.1542 2.08704 13.1542 1.41238C13.1542 0.737723 12.6067 0.199951 11.9418 0.199951C11.2573 0.199951 10.7293 0.747501 10.7293 1.41238C10.7293 2.09682 11.2671 2.63459 11.9418 2.63459ZM19.4315 5.74389C20.1061 5.74389 20.6439 5.19634 20.6439 4.53146C20.6439 3.84702 20.0963 3.31903 19.4315 3.31903C18.7471 3.31903 18.2092 3.8568 18.2092 4.53146C18.2092 5.20612 18.7568 5.74389 19.4315 5.74389ZM22.5114 13.2042C23.1861 13.2042 23.7336 12.647 23.7336 11.982C23.7336 11.2976 23.1763 10.7696 22.5114 10.7696C21.827 10.7696 21.2892 11.3171 21.2892 11.982C21.2892 12.6567 21.8465 13.2042 22.5114 13.2042ZM19.4217 20.6548C20.0963 20.6548 20.6341 20.1171 20.6341 19.4424C20.6341 18.7677 20.0865 18.23 19.4217 18.23C18.7372 18.23 18.1995 18.7775 18.1995 19.4424C18.1995 20.1268 18.7471 20.6548 19.4217 20.6548ZM11.9418 19.1001C15.8626 19.1001 19.0501 15.9225 19.0501 11.982C19.0501 8.30564 16.2537 5.28434 12.6653 4.92257L12.6556 12.1287C12.6556 12.5198 12.3133 12.862 11.9418 12.8523C11.5116 12.8327 11.2084 12.5296 11.2084 12.1091V4.92257C7.62981 5.28434 4.82363 8.30564 4.82363 11.982C4.82363 15.9322 8.02092 19.1001 11.9418 19.1001Z" fill="#2ECC71"/>
</svg>
